<svg xmlns="http://www.w3.org/2000/svg" width="600" height="500" viewBox="0 0 600 500" fill="none">
  <rect width="600" height="500" fill="#0A0A0B"/>

  <!-- Background grid dots -->
  <g opacity="0.05">
    <circle cx="30" cy="30" r="1.5" fill="#00E5A0"/>
    <circle cx="90" cy="30" r="1.5" fill="#00E5A0"/>
    <circle cx="150" cy="30" r="1.5" fill="#00E5A0"/>
    <circle cx="210" cy="30" r="1.5" fill="#00E5A0"/>
    <circle cx="270" cy="30" r="1.5" fill="#00E5A0"/>
    <circle cx="330" cy="30" r="1.5" fill="#00E5A0"/>
    <circle cx="390" cy="30" r="1.5" fill="#00E5A0"/>
    <circle cx="450" cy="30" r="1.5" fill="#00E5A0"/>
    <circle cx="510" cy="30" r="1.5" fill="#00E5A0"/>
    <circle cx="570" cy="30" r="1.5" fill="#00E5A0"/>
    <circle cx="30" cy="90" r="1.5" fill="#00E5A0"/>
    <circle cx="90" cy="90" r="1.5" fill="#00E5A0"/>
    <circle cx="150" cy="90" r="1.5" fill="#00E5A0"/>
    <circle cx="210" cy="90" r="1.5" fill="#00E5A0"/>
    <circle cx="270" cy="90" r="1.5" fill="#00E5A0"/>
    <circle cx="330" cy="90" r="1.5" fill="#00E5A0"/>
    <circle cx="390" cy="90" r="1.5" fill="#00E5A0"/>
    <circle cx="450" cy="90" r="1.5" fill="#00E5A0"/>
    <circle cx="510" cy="90" r="1.5" fill="#00E5A0"/>
    <circle cx="570" cy="90" r="1.5" fill="#00E5A0"/>
    <circle cx="30" cy="150" r="1.5" fill="#00E5A0"/>
    <circle cx="90" cy="150" r="1.5" fill="#00E5A0"/>
    <circle cx="150" cy="150" r="1.5" fill="#00E5A0"/>
    <circle cx="210" cy="150" r="1.5" fill="#00E5A0"/>
    <circle cx="270" cy="150" r="1.5" fill="#00E5A0"/>
    <circle cx="330" cy="150" r="1.5" fill="#00E5A0"/>
    <circle cx="390" cy="150" r="1.5" fill="#00E5A0"/>
    <circle cx="450" cy="150" r="1.5" fill="#00E5A0"/>
    <circle cx="510" cy="150" r="1.5" fill="#00E5A0"/>
    <circle cx="570" cy="150" r="1.5" fill="#00E5A0"/>
    <circle cx="30" cy="210" r="1.5" fill="#00E5A0"/>
    <circle cx="90" cy="210" r="1.5" fill="#00E5A0"/>
    <circle cx="150" cy="210" r="1.5" fill="#00E5A0"/>
    <circle cx="210" cy="210" r="1.5" fill="#00E5A0"/>
    <circle cx="270" cy="210" r="1.5" fill="#00E5A0"/>
    <circle cx="330" cy="210" r="1.5" fill="#00E5A0"/>
    <circle cx="390" cy="210" r="1.5" fill="#00E5A0"/>
    <circle cx="450" cy="210" r="1.5" fill="#00E5A0"/>
    <circle cx="510" cy="210" r="1.5" fill="#00E5A0"/>
    <circle cx="570" cy="210" r="1.5" fill="#00E5A0"/>
    <circle cx="30" cy="270" r="1.5" fill="#00E5A0"/>
    <circle cx="90" cy="270" r="1.5" fill="#00E5A0"/>
    <circle cx="150" cy="270" r="1.5" fill="#00E5A0"/>
    <circle cx="210" cy="270" r="1.5" fill="#00E5A0"/>
    <circle cx="270" cy="270" r="1.5" fill="#00E5A0"/>
    <circle cx="330" cy="270" r="1.5" fill="#00E5A0"/>
    <circle cx="390" cy="270" r="1.5" fill="#00E5A0"/>
    <circle cx="450" cy="270" r="1.5" fill="#00E5A0"/>
    <circle cx="510" cy="270" r="1.5" fill="#00E5A0"/>
    <circle cx="570" cy="270" r="1.5" fill="#00E5A0"/>
    <circle cx="30" cy="330" r="1.5" fill="#00E5A0"/>
    <circle cx="90" cy="330" r="1.5" fill="#00E5A0"/>
    <circle cx="150" cy="330" r="1.5" fill="#00E5A0"/>
    <circle cx="210" cy="330" r="1.5" fill="#00E5A0"/>
    <circle cx="270" cy="330" r="1.5" fill="#00E5A0"/>
    <circle cx="330" cy="330" r="1.5" fill="#00E5A0"/>
    <circle cx="390" cy="330" r="1.5" fill="#00E5A0"/>
    <circle cx="450" cy="330" r="1.5" fill="#00E5A0"/>
    <circle cx="510" cy="330" r="1.5" fill="#00E5A0"/>
    <circle cx="570" cy="330" r="1.5" fill="#00E5A0"/>
    <circle cx="30" cy="390" r="1.5" fill="#00E5A0"/>
    <circle cx="90" cy="390" r="1.5" fill="#00E5A0"/>
    <circle cx="150" cy="390" r="1.5" fill="#00E5A0"/>
    <circle cx="210" cy="390" r="1.5" fill="#00E5A0"/>
    <circle cx="270" cy="390" r="1.5" fill="#00E5A0"/>
    <circle cx="330" cy="390" r="1.5" fill="#00E5A0"/>
    <circle cx="390" cy="390" r="1.5" fill="#00E5A0"/>
    <circle cx="450" cy="390" r="1.5" fill="#00E5A0"/>
    <circle cx="510" cy="390" r="1.5" fill="#00E5A0"/>
    <circle cx="570" cy="390" r="1.5" fill="#00E5A0"/>
    <circle cx="30" cy="450" r="1.5" fill="#00E5A0"/>
    <circle cx="90" cy="450" r="1.5" fill="#00E5A0"/>
    <circle cx="150" cy="450" r="1.5" fill="#00E5A0"/>
    <circle cx="210" cy="450" r="1.5" fill="#00E5A0"/>
    <circle cx="270" cy="450" r="1.5" fill="#00E5A0"/>
    <circle cx="330" cy="450" r="1.5" fill="#00E5A0"/>
    <circle cx="390" cy="450" r="1.5" fill="#00E5A0"/>
    <circle cx="450" cy="450" r="1.5" fill="#00E5A0"/>
    <circle cx="510" cy="450" r="1.5" fill="#00E5A0"/>
    <circle cx="570" cy="450" r="1.5" fill="#00E5A0"/>
  </g>

  <!-- Network connection lines - outer layer (faint) -->
  <g stroke="#00E5A0" stroke-width="1" opacity="0.1">
    <line x1="120" y1="80" x2="300" y2="140"/>
    <line x1="300" y1="140" x2="480" y2="100"/>
    <line x1="120" y1="80" x2="80" y2="200"/>
    <line x1="480" y1="100" x2="520" y2="230"/>
    <line x1="80" y1="200" x2="140" y2="350"/>
    <line x1="520" y1="230" x2="460" y2="370"/>
    <line x1="140" y1="350" x2="300" y2="420"/>
    <line x1="460" y1="370" x2="300" y2="420"/>
    <line x1="80" y1="200" x2="200" y2="250"/>
    <line x1="520" y1="230" x2="400" y2="250"/>
  </g>

  <!-- Network connection lines - mid layer -->
  <g stroke="#00E5A0" stroke-width="1.5" opacity="0.2">
    <line x1="200" y1="160" x2="300" y2="250"/>
    <line x1="400" y1="160" x2="300" y2="250"/>
    <line x1="200" y1="160" x2="200" y2="250"/>
    <line x1="400" y1="160" x2="400" y2="250"/>
    <line x1="200" y1="250" x2="300" y2="250"/>
    <line x1="400" y1="250" x2="300" y2="250"/>
    <line x1="200" y1="250" x2="250" y2="340"/>
    <line x1="400" y1="250" x2="350" y2="340"/>
    <line x1="250" y1="340" x2="350" y2="340"/>
    <line x1="250" y1="340" x2="300" y2="250"/>
    <line x1="350" y1="340" x2="300" y2="250"/>
  </g>

  <!-- Network connection lines - core (bright) -->
  <g stroke="#00E5A0" stroke-width="2" opacity="0.5">
    <line x1="300" y1="140" x2="200" y2="160"/>
    <line x1="300" y1="140" x2="400" y2="160"/>
    <line x1="300" y1="140" x2="300" y2="250"/>
    <line x1="300" y1="250" x2="250" y2="340"/>
    <line x1="300" y1="250" x2="350" y2="340"/>
  </g>

  <!-- Data flow particles (small dots along lines) -->
  <g fill="#00E5A0" opacity="0.5">
    <circle cx="250" cy="150" r="2"/>
    <circle cx="350" cy="150" r="2"/>
    <circle cx="248" cy="200" r="1.5"/>
    <circle cx="352" cy="200" r="1.5"/>
    <circle cx="270" cy="295" r="1.5"/>
    <circle cx="330" cy="295" r="1.5"/>
  </g>

  <!-- Outer nodes (faint, large) -->
  <g>
    <circle cx="120" cy="80" r="6" stroke="#00E5A0" stroke-width="1.5" fill="none" opacity="0.15"/>
    <circle cx="480" cy="100" r="6" stroke="#00E5A0" stroke-width="1.5" fill="none" opacity="0.15"/>
    <circle cx="80" cy="200" r="5" stroke="#00E5A0" stroke-width="1.5" fill="none" opacity="0.15"/>
    <circle cx="520" cy="230" r="5" stroke="#00E5A0" stroke-width="1.5" fill="none" opacity="0.15"/>
    <circle cx="140" cy="350" r="5" stroke="#00E5A0" stroke-width="1.5" fill="none" opacity="0.15"/>
    <circle cx="460" cy="370" r="5" stroke="#00E5A0" stroke-width="1.5" fill="none" opacity="0.15"/>
    <circle cx="300" cy="420" r="5" stroke="#00E5A0" stroke-width="1.5" fill="none" opacity="0.15"/>
  </g>

  <!-- Mid-layer nodes -->
  <g>
    <circle cx="200" cy="160" r="8" stroke="#00E5A0" stroke-width="1.5" fill="none" opacity="0.3"/>
    <circle cx="200" cy="160" r="3" fill="#00E5A0" opacity="0.2"/>
    <circle cx="400" cy="160" r="8" stroke="#00E5A0" stroke-width="1.5" fill="none" opacity="0.3"/>
    <circle cx="400" cy="160" r="3" fill="#00E5A0" opacity="0.2"/>
    <circle cx="200" cy="250" r="7" stroke="#00E5A0" stroke-width="1.5" fill="none" opacity="0.3"/>
    <circle cx="200" cy="250" r="2.5" fill="#00E5A0" opacity="0.2"/>
    <circle cx="400" cy="250" r="7" stroke="#00E5A0" stroke-width="1.5" fill="none" opacity="0.3"/>
    <circle cx="400" cy="250" r="2.5" fill="#00E5A0" opacity="0.2"/>
  </g>

  <!-- Core nodes (brightest) -->
  <g>
    <!-- Central hub - top -->
    <circle cx="300" cy="140" r="12" stroke="#00E5A0" stroke-width="2" fill="none" opacity="0.6"/>
    <circle cx="300" cy="140" r="6" stroke="#00E5A0" stroke-width="1.5" fill="none" opacity="0.4"/>
    <circle cx="300" cy="140" r="3" fill="#00E5A0" opacity="0.8"/>

    <!-- Central hub - middle (main) -->
    <circle cx="300" cy="250" r="16" stroke="#00E5A0" stroke-width="2" fill="none" opacity="0.8"/>
    <circle cx="300" cy="250" r="10" stroke="#00E5A0" stroke-width="1.5" fill="none" opacity="0.5"/>
    <circle cx="300" cy="250" r="4" fill="#00E5A0"/>

    <!-- Lower nodes -->
    <circle cx="250" cy="340" r="10" stroke="#00E5A0" stroke-width="2" fill="none" opacity="0.5"/>
    <circle cx="250" cy="340" r="4" fill="#00E5A0" opacity="0.5"/>
    <circle cx="350" cy="340" r="10" stroke="#00E5A0" stroke-width="2" fill="none" opacity="0.5"/>
    <circle cx="350" cy="340" r="4" fill="#00E5A0" opacity="0.5"/>
  </g>

  <!-- Hexagonal accent shapes -->
  <g stroke="#00E5A0" stroke-width="1" fill="none" opacity="0.1">
    <polygon points="300,200 320,215 320,240 300,255 280,240 280,215"/>
    <rect x="70" y="120" width="30" height="30" rx="2" transform="rotate(45 85 135)"/>
    <rect x="490" y="300" width="25" height="25" rx="2" transform="rotate(45 502 312)"/>
  </g>

  <!-- Subtle scan lines / horizontal data streams -->
  <g stroke="#00E5A0" stroke-width="0.5" opacity="0.08">
    <line x1="0" y1="165" x2="150" y2="165"/>
    <line x1="450" y1="165" x2="600" y2="165"/>
    <line x1="0" y1="250" x2="100" y2="250"/>
    <line x1="500" y1="250" x2="600" y2="250"/>
    <line x1="0" y1="340" x2="130" y2="340"/>
    <line x1="470" y1="340" x2="600" y2="340"/>
  </g>

  <!-- Corner accent brackets -->
  <g stroke="#00E5A0" stroke-width="1.5" opacity="0.2">
    <path d="M 20,20 L 20,50" fill="none"/>
    <path d="M 20,20 L 50,20" fill="none"/>
    <path d="M 580,20 L 580,50" fill="none"/>
    <path d="M 580,20 L 550,20" fill="none"/>
    <path d="M 20,480 L 20,450" fill="none"/>
    <path d="M 20,480 L 50,480" fill="none"/>
    <path d="M 580,480 L 580,450" fill="none"/>
    <path d="M 580,480 L 550,480" fill="none"/>
  </g>
</svg>